<svg xmlns="http://www.w3.org/2000/svg" version="1.1" viewBox="0 0 2000 2000" width="500" height="500">
<path transform="translate(1644)" d="m0 0h21v10l-4 35-3 25-5 10-9 8-13 10-16 13-11 9-17 14-13 11-10 8-16 13-14 11-12 11-3 14-4 35-4 6-9 8-11 8-14 12-10 8-16 13-17 14-13 10-17 14-14 11-13 11-11 9-12 11-3 6-3 21-3 39-3 12-4 6-11 9-13 11-10 8-14 11-14 12-11 9-14 12-11 9-13 11-10 8-1 1-1 11-4 9-5 6-5 2h-12l-8-5-5-8v-12l4-7 10-5 6-1 7 1h8l9-7 9-8 11-9 16-13 11-9 16-13 28-22 17-14 5-6 2-5 2-21 2-26 3-20 3-7 9-9 10-8 16-13 11-9 34-28 16-13 10-8 11-9 2-3-2-1-19-1h-18l-10 5-14 11-13 11-18 14-22 18-13 11-11 9-11 8-11 10-17 13-6 7-3 9-5 47-4 6-11 10-14 11-4 5v7l-3 7-9 7-3 1h-8l-8-4-6-7-1-3v-10l3-6 6-5 5-2h7l10 3 5-1 14-11 6-4 4-5 3-12 3-29 2-17 9-9 9-7 16-13 11-9 13-11 11-9 14-11 16-13 11-9 14-12 10-8 13-10 6-3h19l23 2h14l16-12 12-10 2-9 3-34 3-10 7-7 13-10 13-11 11-9 17-14 14-11 17-14 10-8 17-14 9-7 6-7 4-18 4-48-13 9-11 9-16 13-11 9-14 12-10 8-11 9-15 13-14 11-11 9-3 2h-16l-26-3-5 1-17 13-8 7-14 11-10 9-11 9-21 16-11 9-13 11-11 9-11 10-14 11-15 13-13 11-13 10-32 26-8 7-3 9-6 51-2 21-3 5-9 8-17 13-15 13-10 8-13 11-11 9-6 5-1 2-1 23-4 23-7 8-12 11-14 11-11 9-10 9-14 11-16 13-15 13-10 8-13 11-14 11-13 11-14 12-3 8-2 9-3 23-2 15-7 8-15 13-14 11-11 9-13 10v17l-5 8-5 4-3 1h-9l-7-3-5-4-4-9v-9l4-8 8-5 6-1 9 2 6-1 10-9 16-12 14-12 10-9 4-4 2-5 5-47 4-6 11-9 13-11 14-11 13-11 11-9 13-11 14-11 14-12 11-9 13-11 17-13 16-13 4-5 3-33-7 4-13 11-10 8-16 13-17 14-14 12-9 7-11 9-10 9-11 9-17 14-11 9-15 12-11 9-13 11-14 11-10 8 1 7-2 7-5 6-8 4h-10l-7-4-5-6-2-5v-7l3-8 8-7 8-1 13 4 4-1 10-9 13-11 13-10 13-11 13-10 14-12 13-10 13-11 10-8 22-18 16-13 11-9 13-11 13-10 22-18 14-12 17-14 16-13 14-11 13-11 11-9 3-3 2-9 5-57 3-16 12-11 14-11 14-12 10-8 16-13 14-11 14-12 11-9 14-12 17-14 13-10 11-10 17-13 15-13 11-9 14-12 1-3h-12l-37-4-9-1h-11l-9 7-14 12-14 11-13 11-9 7-17 14-10 8-14 12-6 4h-2l1 8v9l-3 9-7 8-7 3h-15l-8-4-6-7-3-8 1-11 5-10 7-6 2-1h14l10 4 5-1 10-8 15-13 14-11 34-28 9-7 10-9 16-12 2-1h14l48 5 23 3 23 2h23l11-9 12-10 10-8 11-9 34-28 13-11 11-9zm-385 182-8 7-2 4v9l5 8 5 3h7l8-4 4-7 1-8-3-5-5-4-8-3z" fill="#5086c1"/>
<path transform="translate(588)" d="m0 0h36l-2 4-10 8-11 9-16 13-10 8-13 11-11 9-13 11-10 8-13 11-14 11-13 11-10 9-16 12-17 14-11 9-14 12-16 13-11 9-12 10-9 7-13 10-1 3-3 35-3 25-5 49-2 28-4 7-7 7-11 9-16 13-11 9-17 14-13 10-15 13-14 11-17 14-13 11-13 10-17 14-11 9-13 11-11 9-13 11-14 12-17 13-17 14-13 11-11 9-14 12-28 22-12 9-3 1v-27l10-9 11-9 14-12 14-11 10-9 22-18 14-11 11-9 14-11 13-11 11-9 10-9 10-8 11-9 13-11 14-11 13-11 13-10 16-13 11-9 14-12 13-11 14-11 13-11 11-9 1-1 11-116 3-20 3-8 4-5 8-7 16-13 10-8 14-11 13-11 11-9 15-13 14-11 17-14 14-11 14-12 16-13 10-8 11-9 13-11 10-8 13-11 14-11 12-10z" fill="#5086c1"/>
<path transform="translate(1197)" d="m0 0h8l-1 20-2 20-2 6-7 8-15 13-11 9-14 12-14 11-14 12-14 11-9 8-13 10-15 12-22 18-13 11-10 8-13 11-14 11-9 8-11 9-8 7-14 11-6 5h-27l-57-6-7-2-10-9-13-16-9-11-11-13-10-13-11-14-12-15-11-14-11-13-18-22-11-14-8-9-7-3-27-3-32-3h-10l-9 7-16 13-10 8-13 11-14 11-13 11-14 11-17 14-10 8-13 11-11 9-13 11-25 20-11 9-14 12-14 11-5 5-2 12-6 59 1 10 4 6 12 14 11 14 12 15 11 14 13 16 11 13 27 33 12 14 9 11 13 16 11 14 11 13 11 14 13 15 9 11 12 14 9 10 9 11 11 14 13 16 11 14 9 11 12 14 11 14 18 22 14 17 13 16 1 2-1 28-3 28v8l12 5 10 9 8 16 1 6v11l-3 14-5 8-5 5-7 6-12 5-6 1h-12l-11-3-9-6-9-9-5-10-2-8v-14l4-13 6-9 8-7 10-5 15-3 1-16 3-35v-11l-8-11-11-13-13-16-9-11-11-13-9-11-12-14-9-11-11-14-13-16-14-17-9-11-14-17-11-13-11-14-12-14-12-16-13-16-9-11-11-12-8-10-39-48-11-13-11-14-10-12-9-11-12-14-7-11-3-8 2-30 3-27 1-17 4-9 6-7 11-9 17-14 32-26 10-8 13-11 14-11 13-11 14-11 15-13 11-9 16-13 11-9 17-14 13-11 13-9 2-1 21 1 44 4 14 3 8 7 10 13 12 14 11 14 12 14 8 10 11 13 28 35 14 17 10 12 9 11 6 5 18 3 46 4h20l14-12 16-13 26-22 10-8 14-11 13-11 11-9 14-12 11-9 16-13 14-11 13-11 14-11 17-14 11-9 15-13 10-9 2-4zm-461 815-13 4-9 7-5 8-2 7v14l3 9 4 6 8 8 9 4 5 1h8l10-3 9-7 7-9 3-7 1-5v-10l-4-10-6-8-9-6-9-3z" fill="#5086c1"/>
<path transform="translate(650,1104)" d="m0 0 9 1 6 4 4 5 2 6v7l-3 7-8 7-2 1h-19l-11 8-15 13-11 9-13 11-4 4-3 9-5 43-3 7-13 10-17 14-14 12-13 10-15 13-13 10-16 13-13 11-14 11-13 11-11 9-13 10-1 6-2 29 5-3 17-14 11-9 13-11 11-9 16-13 13-10 11-9 13-11 14-11 13-11 13-10 13-11 14-11 17-14 10-9 4-3 1-11 5-9 7-4 8-1 9 3 7 8 1 3v10l-3 8-7 6-8 1-10-2-5-2-11 7-10 9-10 8-11 9-16 13-14 11-13 11-14 11-10 9-10 8-17 14-16 13-11 9-13 11-11 9-16 13-13 11-10 8-12 10-11 9-12 10-13 10-13 11-12 11-5 43-3 32-3 7-12 12-12 9-11 9-10 8-18 14-14 12-10 8-14 12-10 9-28 22-11 9-20 16-14 12-10 8-10 9h-2v2l-8 7-2 3 13 2 21 2 27 3h6l22-18 17-14 16-13 11-9 10-9 12-9 13-11 7-6v-15l4-9 6-7 9-4h10l8 3 8 7 4 9v7l-4 11-5 5-6 4-3 1h-14l-7-3-7 1-7 7-22 18-10 8-13 11-10 8-17 14-11 9-15 12-3 1h-14l-59-6-45-4h-12l-9 6-12 10-9 6h-3v-8l11-9 12-10 6-4h13l16 1h19l9-6 14-13 11-9 10-9 17-13 14-12 10-8 11-9 32-26 10-8 17-14 14-12 14-11 17-14 14-11 9-9 2-7 5-51 2-19 3-6 10-10 11-9 13-11 11-9 14-11 13-10 9-7 2-2 1-4 2-38 2-9 16-12 10-9 11-9 14-12 13-10 13-11 10-8 16-13 13-11 14-11 9-8 11-9 15-14 2-4 2-12 2-29 2-8 7-8 11-10 11-9 13-11 10-8 6-5v-10l3-10 5-6zm-360 552-9 4-3 5v7l5 10 5 4h9l6-4 3-4 1-3v-8l-4-7-5-3z" fill="#5086c1"/>
<path transform="translate(518,520)" d="m0 0h14l8 4 5 5 3 6 1 12-3 9-5 6-8 4h-15l-8-3-4 1-11 9-13 11-14 11-14 12-8 7-4 6-3 22-3 24-2 7-8 8-10 8-17 14-14 12-10 8-16 13-11 9-12 10-14 11-13 11-11 9-16 13-10 8-4 4-2 26-1 8 9-6 14-12 11-9 12-10 13-10 16-13 13-11 14-12 14-11 12-10 14-11 16-13 22-18 13-11 11-9 4-4 2-11 3-6 6-5 4-1h10l8 3 4 5 3 10-1 7-7 8-10 5-8-1-9-3-6 3-28 24-11 9-16 13-12 9-13 11-14 11-13 11-22 18-13 11-10 8-13 11-14 11-12 10-9 7-14 12-10 9-14 11-13 11-13 10-16 13-11 9-3 9-3 20-4 48-3 8-11 11-17 13-11 9-16 13-13 10-28 24-32 26-14 11-17 13-9 5v-9l13-10 13-11 17-14 14-11 11-10 10-8 14-12 11-9 18-14 16-13 12-9 10-8 3-9 2-32 5-44 9-8 12-9 14-12 11-9 17-14 10-8 11-9 2-5 1-27 2-15 7-8 26-22 10-8 13-11 11-9 25-20 14-12 17-14 14-11 14-12 14-11 3-6 5-43 2-10 10-9 11-9 13-11 11-9 13-10 10-8 1-4-1-4v-11l4-8 8-7zm4 7-6 3-5 7-1 8 4 8 6 5h8l8-4 4-7v-9l-4-6-3-3-7-2z" fill="#5086c1"/>
<path transform="translate(2e3 202)" d="m0 0h1v10l-11 8-14 11-15 13-14 11-9 8-20 15-11 9-14 12-10 8-2 3-3 19-7 77 3 8 10 13 11 13 9 11 14 17 11 13 8 10 10 12 7 10 1 2v16l-7 70-2 11-7 7-13 10-10 9-14 11-13 11-17 14-13 11-25 20-11 9-17 14-10 8-11 9-10 9-11 9-14 12-3 4-3 24-4 37-3 31-4 7-7 7-11 9-14 12-14 11-11 9-14 11-13 11-9 7-2 3 3 9 1 9-2 13-6 11-9 8-7 3-5 1h-15l-10-3-6-4-7-8-4-9-2-10 1-12 6-12 8-7 11-5 5-1h14l10 4 6 4 4-1 10-9 10-8 11-10 13-10 16-13 13-11 11-8 5-4 4-8 4-43 3-39 3-11 8-9 12-9 16-13 17-14 14-12 14-11 14-12 14-11 16-13 17-14 14-12 13-11 10-8 13-11 6-6 2-12 3-21 4-41 1-15-4-8-14-17-9-11-13-16-11-14-12-14-9-11-10-12-2-4v-9l3-23 3-40 4-31 4-6 12-10 13-10 11-9 14-12 11-9 10-9 14-11 16-13 13-10zm-401 752-10 6-6 12v11l4 8 8 7 6 2h8l9-3 6-5 3-5 1-4v-13l-3-7-8-7-6-2z" fill="#5086c1"/>
<path transform="translate(355,1284)" d="m0 0h11l8 4 5 7 1 3v10l-4 6-8 6-2 1h-10l-5-2-6 1-16 13-11 9-14 12-14 11-13 11-10 8-15 13-16 13-8 6-4 5-3 9-5 49-1 15-4 8h-2v2l-17 13-17 14-14 12-14 11-14 12-10 8-14 12-13 12-2 3 6 1 17 1h14l7-3 14-11 14-12 13-11 10-8 11-9 14-11 11-9 15-13 10-8 14-11 10-8 4-6 4-34 1-17 3-6 11-10 10-8 11-10 1-9 4-6 5-5 5-3h8l10 5 4 5 2 7-1 9-6 8-5 4-5 1-17-4-8 4-14 12-6 5-2 11-4 45-3 5-26 20-17 14-11 9-26 22-13 10-11 9-15 13-14 12-10 8-7 4h-9l-26-3h-21l-6 4-14 12-8 7-2 12-4 26-3 13-10 10-9 7-17 13-4 3h-3v-8l13-10 15-13 7-8 2-17 3-25 2-7 7-7 13-10 13-11 11-8 11-10 8-7 14-12 11-9 28-22 11-9 17-14 11-9 6-7 2-10 5-48 3-18 5-7 22-18 13-11 13-10 15-12 26-20 14-12 11-9 9-8 1-11 5-10 6-5z" fill="#5086c1"/>
<path transform="translate(1733)" d="m0 0h11l-1 21-5 45-2 8-5 5-10 9-13 10-17 14-14 11-16 13-22 18-13 11-14 11-5 5-3 5-3 25-8 88-2 12-7 8-15 13-12 11-11 9-17 14-25 20-17 13-14 12-10 8-17 14-7 6-3 9-3 32-5 55-3 7-5 5-9 8-11 9-14 12-11 9-14 11-15 12-11 9-13 11-11 9-16 13-14 11-14 12-14 11-17 14-11 9-14 12-11 9-4 4-1 5v7l-6 9-7 6-7 1-8-3-8-7-2-5v-11l4-8 5-4 2-1h14l8 2 10-8 14-11 13-11 10-8 17-14 10-8 15-13 14-11 32-26 14-12 11-9 16-13 17-13 10-8 13-12 8-7 3-4 2-9 8-76 2-12 7-8 11-9 13-11 11-9 17-14 16-13 18-14 14-12 13-11 14-12 8-7 9-8 3-9 4-29 3-37 3-33 2-18 2-6 5-5 9-8 12-9 13-11 14-11 16-13 11-9 28-24 14-11 6-5h2l1-10v-10l2-14z" fill="#5086c1"/>
<path transform="translate(633,1437)" d="m0 0h7l9 4 6 7 2 5v8l-4 8-5 4-4 2h-13l-5-2-5 1-14 12-17 13-13 11-11 9-14 12-14 11-17 14-14 12-8 7-4 2-2 4-5 38-3 30-3 7-8 8-17 13-16 13-9 7-14 11-13 11-11 9-17 14-10 8-14 12-26 22-14 11-16 13-17 14-14 11-15 13-14 11-13 11-14 11-13 10-2 1h-18l-100-10-6 2-11 9-14 12-10 8-11 9-17 14-6 4h-2v-10l12-10 11-9 14-12 20-16 13-11 13 1 71 7 28 3h11l9-9 14-11 26-22 42-33 26-22 14-11 14-12 14-11 13-11 11-9 16-13 14-11 17-14 15-13 11-9 14-11 10-9 2-3 2-14 2-30 3-23 4-8 10-9 14-11 11-9 12-10 22-18 17-14 13-11 14-11 12-10 6-4 1-7 2-9 5-8z" fill="#5086c1"/>
<path transform="translate(1864,152)" d="m0 0h11l10 5 6 7 3 8v8l-4 10-7 7-9 3-11-1-7-1-9 7-11 9-10 7-3 13-4 35-4 40-4 43-4 39-3 7-7 8-11 10-11 9-13 11-11 9-16 13-15 12-14 11-13 11-14 11-14 12-10 8-28 24-16 13-13 11-15 11-5 2h-12l-53-5-34-4h-8l-6 4-14 12-11 9-14 12-11 9-16 13-11 10-8 5 1 4v12l-6 9-8 5h-8l-10-5-4-6-2-6 1-8 5-9 8-4 19-1 9-7 16-13 28-22 12-11 11-9 16-11 6-1 38 4 41 4 22 1 8-4 14-11 26-22 11-9 13-11 11-9 9-8 13-10 17-14 14-11 13-11 14-11 14-12 13-10 13-11 11-9 7-8 2-12 4-41 10-100 3-21 4-5 10-6 10-9 9-6-1-8-2-7 1-10 6-9 7-6zm2 9-6 4-5 8v7l4 6 5 4 2 1h8l6-3 4-5v-11l-4-6-4-4-3-1z" fill="#5086c1"/>
<path transform="translate(491,868)" d="m0 0h13l6 3 5 6 1 3v10l-3 8-7 7-9 1-10-2-6-1-11 9-14 12-15 13-16 12-11 10-17 13-11 9-10 8-16 13-4 2-2 4-3 7-4 37-2 21-1 9-7 8-16 13-11 9-17 14-9 7-17 14-14 11-13 11-14 11-11 9-14 11-17 14-13 11-11 9-13 11-14 11-14 12-11 9-17 14-13 11-12 9-7 6-3 2-5 1-21-1-30-4v-8l16 1 27 2h7l10-7 10-9 13-10 13-11 14-11 13-11 10-8 16-13 13-11 10-8 14-12 17-13 17-14 22-18 14-11 13-11 10-8 15-13 17-14 16-12 4-4 3-9 3-31 1-16 3-16 3-6 7-7 11-9 12-10 10-8 16-13 10-8 10-9 11-9 17-14 16-13 10-8 3-3 1-10 4-8 6-5z" fill="#5086c1"/>
<path transform="translate(512,1452)" d="m0 0h11l8 4 8 7 5 10v8l-3 7-6 7-6 4-3 1h-15l-6-2-5 1-12 9-11 8-16 13-5 4-4 8-2 20-2 25-3 23-3 7-12 11-16 12-14 12-11 9-14 12-15 13-17 14-14 11-34 28-13 10-13 11-11 9-10 9-14 11-14 12-14 11-14 12-11 9-9 7-3 1h-19l-75-8-16-1-6 3-13 11-14 11-9 8-12 9-5 1v-9l16-13 14-13 14-11 7-5 3-1h13l34 4 27 2 16 2h22l11-8 14-12 10-8 15-13 10-8 34-28 10-8 11-9 15-13 14-11 16-13 14-11 14-12 13-11 17-13 14-12 11-9 14-12 10-7 2-5 4-30 3-37 3-9 3-4h2v-2l14-11 11-9 12-10 7-5v-19l5-10 8-7zm3 10-8 4-4 8 2 9 4 6 5 3h8l8-5 3-5v-8l-5-8-6-4z" fill="#5086c1"/>
<path transform="translate(1545)" d="m0 0h13l-1 3-11 9-9 8-14 11-10 9h-2v2l-8 5h-15l-94-9-10 5-13 11-14 11-16 13-10 8-11 9-13 11-32 26-11 9-13 11-14 11-34 28-14 12-9 7-13 11-11 9-13 11-11 9-10 9-2 7-7 62-2 10-7 7-28 22-10 9-4 3 1 12-3 10-6 9-7 5-4 1h-9l-8-3-10-9-3-8 1-10 4-9 7-6 5-2 10-1 9 2 6 2 8-7 11-10 26-20 3-6 4-28 4-44 4-7 11-9 13-11 10-8 14-11 13-11 14-11 13-11 22-18 13-11 13-10 11-9 14-12 14-11 10-8 16-13 14-11 10-9 11-9 16-13 13-10 8-6h9l90 9h11l10-6 14-12 11-9zm-510 376-8 4-4 10 2 9 7 6 2 1h9l6-4 3-5 1-7-2-7-6-5-5-2z" fill="#5086c1"/>
<path transform="translate(1881,493)" d="m0 0 9 1 8 6 3 6v7l-4 10-4 5-4 4-2 18-2 12-6 7-14 11-14 12-10 8-11 9-13 11-10 8-14 12-13 11-9 7-13 11-10 8-13 11-11 9-16 13-14 11-12 10-14 11-10 9-3 3h-2l-3 15-5 35-3 8-13 12-14 11-12 11-14 11-16 13-9 6h-18l-24-3-14-2-10 9-6 2h-7l-7-3-5-4-3-6v-13l5-8 7-4h12l8 4 5 6 2 7 23 3 22 2h7l9-5 9-8 22-18 17-14 11-9 5-3 2-7 4-41 2-8 5-6 11-9 17-14 13-10 15-13 10-8 13-11 14-11 13-11 28-22 13-11 10-8 12-10 13-10 13-11 22-18 10-9 2-8 2-20 1-2-6-2-8-8-3-10 3-9 5-5 6-3z" fill="#5086c1"/>
<path transform="translate(331,75)" d="m0 0h14l8 4 7 8 2 5v11l-3 8-7 9-7 3h-14l-9-2-11 8-14 12-9 8-1 17-3 18-4 42-3 32-4 30-3 6-10 9-14 11-14 12-17 14-13 10-22 18-14 12-17 13-13 11-14 11-10 9-14 11-9 8-14 11-26 22-11 9-6 6-5 30-3 25-3 6-14 11-4 2h-3v-8l12-11 3-9 4-46 2-5 7-7 11-9 16-13 9-7 13-11 10-8 13-11 14-11 10-9 14-11 17-14 14-11 16-13 17-14 10-8 14-12 32-26h2l2-4 2-7 5-49 3-28 5-52 3-8 8-8 17-13 10-7 1-4-1-4v-17l4-8 5-4zm2 9-6 4-4 6v10l5 7 6 3h7l6-4 5-6 1-9-3-6-5-4-2-1z" fill="#5086c1"/>
<path transform="translate(1332)" d="m0 0h13l-6 7-11 9-16 13-17 14-11 9-14 12-11 9-13 11-11 9-17 14-11 9-13 11-10 8-14 12-13 11-11 8-11 9-13 11-14 11-11 10-13 10-2 2-2 12-5 48-2 14-11 11-14 11-13 11-13 10-17 14-10 8-13 11-12 9-11 9-13 12-7 6-1 4v8l-4 7-6 5-5 2h-9l-8-4-6-7-1-3v-10l3-7 7-6 2-1h14l5 2 5-1 11-9 14-11 13-11 12-9 14-12 11-9 10-9 14-11 12-10 18-14 1-2 5-61 1-10 7-8 12-10 13-10 13-11 10-8 13-11 11-9 12-10 17-13 13-11 14-11 14-12 14-11 11-9 13-11 14-11 11-9 14-11 14-12 11-9z" fill="#5086c1"/>
<path transform="translate(659,228)" d="m0 0h12l36 3 31 3 9 2 10 9 13 15 18 22 12 14 10 13 11 13 9 11 11 13 8 10 3 7v12l-5 45v15l8 8 3 6 1 6-3 10-6 7-4 2h-12l-9-5-5-8v-11l6-10 10-6 6-62v-7l-4-7-11-13-11-14-14-17-9-11-11-13-9-11-12-14-13-16-4-4-13-2-49-5-17-1-9 4-11 9-9 8-11 9-16 13-14 11-4 4v13l-4 9-5 5-6 2h-8l-8-4-5-6-2-6v-9l4-7 6-5 4-2 9 1 3 1h7l11-10 14-11 13-11 10-8 13-11 10-7z" fill="#5086c1"/>
<path transform="translate(371,883)" d="m0 0h12l8 3 7 7 3 8v11l-3 7-6 7-8 4h-15l-9-2-9 6-14 11-17 14-7 7-2 13-5 46-3 19-10 9-11 9-14 11-10 9-9 7-13 11-11 9-17 14-11 9-10 9-17 13-11 9-13 11-10 8-10 9-10 8-13 10-14 11-12 10-11 9-7 7-14 11-12 9-6 3-26-1-1-1v-7h25l11-9 10-9 12-9 13-11 14-11 15-13 33-27 16-13 13-10 11-10 28-22 17-14 14-12 11-9 10-8 16-13 13-10 10-7 3-9 3-32 3-30 3-12 10-9 11-9 14-11 12-11 3-2-1-16 5-10 4-5zm2 9-6 4-4 5-1 6 3 7 7 6 2 1h7l6-4 4-5 1-2v-7l-3-6-5-4-3-1z" fill="#5086c1"/>
<path transform="translate(374,1110)" d="m0 0h12l6 3 7 8 1 2v12l-4 6-6 5-3 1h-13l-5-2-5 1-8 6-5 5-13 10-14 12-14 11-13 11-11 9-13 11-11 9-14 11-16 13-14 11-14 12-11 9-17 14-14 11-12 10-10 8-2 3-8 73-3 26-7 8-16 13-12 9-16 13-15 13-17 14-16 13-14 11-12 9h-2v-9l13-10 11-9 13-11 10-8 14-12 17-14 22-18 14-11 4-6 3-25 4-40 4-32 7-8 14-12 11-9 32-26 17-14 13-11 10-8 17-14 13-11 10-8 16-13 10-8 17-14 11-9 15-13 16-13 2-2 1-11 5-10 5-4z" fill="#5086c1"/>
<path transform="translate(1777,139)" d="m0 0h14l8 4 6 5 4 8v12l-4 8-7 7-8 4h-11l-9-3-10 6-16 13-28 22-15 13-10 8-7 7-2 3-2 14-3 37-4 36-4 8-15 14-10 8-16 13-17 13-14 11-11 9-13 11-11 9-14 12-11 9-10 9-11 8v12l-3 7-6 7-2 1h-11l-9-4-6-9v-12l4-7 7-4 10-1 12 1 13-9 12-10 11-9 14-11 12-11 10-8 10-9 14-11 18-14 13-11 9-7 11-9 3-3 1-3 4-41 3-37 3-13 3-5 11-9 13-11 11-9 13-11 14-11 11-9 14-11-2-8v-12l4-8 8-7zm4 9-8 4-4 8 2 9 5 6 9 3 8-3 5-5 2-4-1-8-5-7-5-3z" fill="#5086c1"/>
<path transform="translate(362)" d="m0 0h15l-5 5-11 10-10 8-16 13-13 10-13 11-33 27-16 13-17 14-13 11-14 11-11 9-13 11-12 11-3 21-10 95-3 9-9 10-16 13-10 8-14 12-17 13-11 9-13 11-10 8-14 11-15 13-17 14-16 12h-2v-12l12-9 16-13 11-9 13-11 28-22 13-11 11-9 13-11 10-8 13-11 11-9 3-1 3-9 6-58 3-31 2-22 3-9 9-9 14-11 13-11 14-11 17-14 14-11 16-13 14-12 14-11 17-14 11-9 16-13 14-11 7-6z" fill="#5086c1"/>
<path transform="translate(1779,509)" d="m0 0h12l10 6 6 8 2 6v9l-4 8-7 7-7 3h-11l-9-2-10 6-16 13-11 9-16 13-14 11-7 6h-2v2l-14 11-14 12-16 13-13 11-14 12-15 12-4 2h-18l-50-5h-11l-9 6-10 9-14 11-15 13-6 5 1 5 2 6v7l-4 8-7 6-3 1h-10l-8-4-5-6-2-5v-9l5-9 6-4 3-1h11l9-6 11-9 13-11 14-11 13-10 7-2 35 3 18 2 18 1 7-3 11-9 16-13 14-11 15-13 11-9 16-13 9-7 14-12 14-11 15-13 10-8 11-9-2-11v-7l4-10 5-6zm4 9-8 3-4 4-2 5 1 7 4 6 6 4 6 1 8-4 5-7v-9l-4-6-4-3z" fill="#5086c1"/>
<path transform="translate(247,516)" d="m0 0 13 2 12 6 8 9 5 13 1 9-2 10-7 11-8 7-8 4-6 1h-12l-12-3-10-7-4 2-7 7-14 11-14 12-14 11-14 12-10 8-13 11-35 28-17 14-14 11-14 12-14 11-14 12-11 9-11 8h-1v-11l13-10 13-11 16-13 13-11 11-9 14-12 13-10 13-11 14-11 13-11 14-11 11-9 13-11 11-9 14-12 10-8 8-6-1-8-1-4v-12l4-11 6-9 8-6 9-4zm-3 14-10 5-6 8-2 6v10l3 6 7 7 7 3h12l8-4 6-7 2-5 1-8-2-9-4-6-7-5-3-1z" fill="#5086c1"/>
<path transform="translate(216,713)" d="m0 0h9l8 4 5 6 1 3v12l-4 6-6 5-7 2-9-1-7-1-12 9-14 11-15 13-10 8-13 11-10 8-13 11-10 8-15 13-12 9-2 9-7 64-3 7-8 8-10 8-17 14-14 12-13 10-6 4h-2v-9l14-11 14-12 13-10 10-9 11-9 2-4 2-29 3-23 1-16 3-7 7-8 11-10 14-11 10-9 13-10 14-11 11-9 14-11 10-9 13-10 9-7 2-5v-9l3-8 6-5z" fill="#5086c1"/>
<path transform="translate(690,290)" d="m0 0h7l8 3 7 8 2 9v8l8 11 22 26 13 17 11 13 4 6 1 5-4 49-4 36v7l11 8 5 10v13l-5 10-6 5-7 3h-13l-8-5-6-7-3-7v-11l3-8 4-5 12-6h2l5-44 3-36 1-14-9-12-14-17-8-10-12-14-11-13-5-1-4 1h-10l-8-4-4-5-2-6v-8l3-7 7-6zm61 208-6 5-2 4v12l3 5 5 3 7 1 7-3 5-4 2-5v-8l-3-5-5-4-3-1z" fill="#5086c1"/>
<path transform="translate(408,431)" d="m0 0h15l10 5 5 6 3 7v12l-5 8-9 8-8 2v16l-4 30-1 18-4 8-11 10-12 9-13 10-12 10-10 8-10 9-11 9-6 5v14l-5 8-7 6-2 1h-8l-8-3-5-4-2-3-1-11 3-9 8-7 3-1h8l6 2 5-1 10-9 9-7 17-14 14-11 14-12 11-9 7-6 2-3 2-28 3-30v-5l-10-9-5-9-1-9 3-9 4-6 6-5zm4 9-6 4-3 8v8l4 6 5 3h10l7-4 3-6v-8l-3-6-5-4-3-1z" fill="#5086c1"/>
<path transform="translate(577,603)" d="m0 0h14l8 4 8 9 2 7v8l-3 8-4 5-8 5-7 2-1 19-2 26-2 13v7l6 8 11 13 9 11 11 13 9 11 5 3 7-1 9 3 7 8 2 4v9l-5 9-5 4-5 2h-10l-8-5-4-5-2-5v-9l2-6-6-10-13-16-14-17-10-13-6-9v-12l2-13 3-37v-5l-11-9-5-8-1-3v-8l4-11 8-7zm4 8-8 5-4 7 1 9 5 6 7 3h6l8-5 3-8-1-9-5-6-4-2z" fill="#5086c1"/>
<path transform="translate(642,352)" d="m0 0h13l8 3 7 8 3 6 1 9-2 7-6 7-9 6-6 2v14l-3 28v23l5 10 9 10 9 11 9 10 9 11 6 5 14 2 8 5 4 6 1 3v11l-4 7-4 3-7 2h-9l-8-4-5-6-1-2v-8l1-5v-8l-8-11-12-14-12-13-11-13-5-10v-17l2-13 2-26v-11l-10-9-5-8-1-3v-11l3-7 4-5zm4 8-8 4-4 8 1 9 4 6 5 3 5 1 9-3 6-7v-9l-3-6-6-5-2-1z" fill="#5086c1"/>
<path transform="translate(188,806)" d="m0 0h14l8 4 5 6 1 3v8l-5 10-5 4-8 2-12-3h-6l-11 8-14 12-2 2-2 18-3 31-2 7-12 12-14 11-16 13-11 9-13 11-11 9-13 11-14 11-14 12-15 12-10 7h-3v-8l15-13 11-9 16-13 12-10 11-9 17-14 14-11 17-14 9-7 13-11 3-6 5-50 2-5 9-8 10-8 12-11 4-15 6-7z" fill="#5086c1"/>
<path transform="translate(828)" d="m0 0h20l11 10 4 9-1 11-3 10 7 9 13 16 9 11 11 13 11 14 10 12 9 11 11 13 2 2h12l8 3 5 5 3 6v7l-4 9-5 6-4 2h-13l-6-3-5-6-1-3v-7l2-10-4-8-9-11-14-17-9-11-12-14-11-14-13-15-8-10-3-2h-19l-8-4-6-7-3-9v-9l4-10zm9 9-8 4-4 4v12l4 6 6 4h9l8-7 2-4v-7l-3-6-6-5z" fill="#5086c1"/>
<path transform="translate(146,1077)" d="m0 0h10l8 3 6 4 5 10v13l-4 9-7 6-6 2h-10l-10-3-6-1-7 7-11 9-13 11-11 9-12 10-13 10-15 13-12 9-14 10-5 2h-12l-7-1v-9l15 2 5-2 16-13 11-9 15-13 8-7 14-11 32-26 11-9 1-1v-15l3-9 5-5 6-4zm4 8-7 3-5 6-1 2v8l6 9 8 3 6-1 7-5 3-7-2-10-5-5-7-3z" fill="#5086c1"/>
<path transform="translate(126)" d="m0 0h16l-5 5-14 12-18 14-16 13-17 14-14 12-13 11-14 11-10 9-6 8-4 28-2 18-3 7-4 3h-2v-45l2-7 3-11 6-7 8-7 32-26 14-11 17-14 11-9 13-11 17-14z" fill="#5086c1"/>
<path transform="translate(1065)" d="m0 0h11l-2 4-12 11-13 10-1 5 2 5v8l-5 9-6 4-3 1h-10l-8-4-6-7-2-9 4-9 7-6 5-2h15l11-9z" fill="#5086c1"/>
<path transform="translate(735,829)" d="m0 0h11l7 4 6 8 1 11-3 8-4 5-6 3h-11l-8-4-6-9-1-3v-9l4-7 6-5z" fill="#5086c1"/>
<path transform="translate(427)" d="m0 0h48l-2 4-10 1-19-1-17-3z" fill="#5086c1"/>
<path transform="translate(0)" d="m0 0h13l-3 5-8 6h-2z" fill="#5086c1"/>
</svg>