<svg xmlns="http://www.w3.org/2000/svg" version="1.1" viewBox="0 0 1600 1600" width="400" height="400">
<path transform="translate(786,271)" d="m0 0h35l34 3 30 5 15 4 15 6 11 6 5 4 2 3 1 10 1 150v150l-1 206-2 5-8 5-25 10-19 5-13 3-1 342-2 1-13 1h-11l-1-2-1-337-75-1-1 452-1 22-4 2-11 1h-9l-1-370-1-84-1-26-5-2-29-6-16-6-8-4-10-7-1-2-1-37v-478l4-6 10-7 14-6 20-6 25-5 29-3zm-8 31-33 2-29 4-15 5-3 3 1 3 16 4 38 4 44 2h23l42-2 23-3 12-3 4-2-1-7-2-2-22-4-22-3-14-1zm129 37-27 7-26 4-27 2-48 2-1 1v465l1 1h34l31-2 24-3 34-8 8-4 1-1 1-15 1-128v-215l-1-87-1-19zm-214 1-1 5-1 31v427l1 4 10 3 22 5 7 1 1-3v-434l-1-32-28-6z" fill="#5086c1"/>
<path transform="translate(738,1292)" d="m0 0h1v33h18v1l-11 1h-9z" fill="#FEFEFE"/>
</svg>