<svg xmlns="http://www.w3.org/2000/svg" version="1.1" viewBox="0 0 1024 1024" width="256" height="256" transform="matrix(1, 0, 0, 1, 0, 0)">
<path transform="translate(444)" d="m0 0h276l1 3 4 2 4 6v76l-2 7-7 5-12 1v60h10l5 3 5 5 1 4v116l12 1 7 4 4 7v308l-2 12-6 10-9 8-7 3-16 2h-32v96l-2 7-4 5-5 2-19 1v128l-1 131-3 5-7 6h-10l-9-9-1-6v-254l-15-1-7-3-5-4-2-4v-100h-32l-1 98-2 5-4 5-4 2-6 1h-13l-1 63-1 196-3 5-7 6h-10l-8-7-2-6v-255l-2-2h-15l-6-4-6-7-1-27 1-74-9 1h-25l1 2v96l-4 8-6 4-6 1h-14v104l-1 155-4 6-6 5h-10l-9-9-1-4v-257h-14l-9-3-6-8v-101l-5 1h-35l-12-3-8-6-7-8-4-8-1-4v-88l7-8 4-2h7l8 5 4 8 1 83h418l1-294-53 1h-34l-9-3-6-8v-8l5-8 4-3 70-1v-98h-8l-8-4-4-5-1-2v-99l7-8 6-2h8v-40h-253l-6-4-4-5-1-2v-7l4-7zm54 642-1 1v81h29l1-1v-80l-5-1zm-106 0-19 1 1 81h29l1-1v-80l-4-1zm228 1v81h29l1-1v-80z" fill="#6a9eda"/>
<path transform="translate(304)" d="m0 0h92l7 7 2 4-1 9-4 6-6 4-69 1v39l10 1 6 4 3 4 1 6v74l-1 21-5 7-5 2-8 1-1 92 1 6h235l18 1 6 4 4 5 1 2v7l-5 8-5 3-33 1h-232l-13-1v148l-1 10-4 6-5 3-6 1-8-3-6-7-1-20v-44l1-114 8-8 2-1 12-1v-32l1-85 3-5 5-5 11-2 1-59h-8l-6-3-5-5-1-3-1-66 3-12 3-3 3-2z" fill="#5086c1"/>
<path transform="translate(500,79)" d="m0 0h22l16 4 14 7 9 7 11 11 8 14 4 10 3 13v19l-4 16-8 16-7 9-9 9-13 8-12 5-14 3h-19l-16-4-14-7-9-7-5-4-8-10-8-14-5-17v-24l4-15 8-16 8-10 10-9 11-7 13-5zm2 30-10 3-10 7-8 8-7 14-1 5v17l4 11 6 10 10 9 11 5 8 2h13l13-4 11-7 7-8 6-12 2-9v-12l-4-13-6-10-7-7-8-5-13-4z" fill="#6a9eda"/>
</svg>